<svg t="1545457855836" class="icon" viewBox="0 0 1024 1024" version="1.1" xmlns="http://www.w3.org/2000/svg" p-id="5547" height="28" width="28"><path d="M850.880127 442.989253l-48.063669-48.074925 106.260116-106.257046 48.061622 48.074925L850.880127 442.989253 850.880127 442.989253zM521.806343 901.576763c-95.499028 0-267.341814-68.695568-397.427568-282.381345C243.570411 418.524049 410.983305 342.043167 516.564969 342.043167c91.125417 0 214.228129 41.094954 386.967332 277.151227C740.13793 861.653495 617.308441 901.576763 521.806343 901.576763L521.806343 901.576763zM516.564969 399.574465c-87.37807 0-215.043704 50.818409-334.669222 224.850048 128.264269 176.190815 262.859733 219.634256 334.669222 219.634256 71.806419 0 211.782428-44.243667 329.452407-224.864374C735.765343 461.969537 607.008864 399.574465 516.564969 399.574465L516.564969 399.574465zM511.348154 760.39223c-77.976956 0-141.197836-63.206554-141.197836-141.197836 0-77.973886 63.22088-141.18351 141.197836-141.18351 77.973886 0 141.197836 63.209624 141.197836 141.18351C652.54599 697.185676 589.323063 760.39223 511.348154 760.39223L511.348154 760.39223zM511.348154 535.527856c-46.216601 0-83.680864 37.46631-83.680864 83.666538 0 46.216601 37.464263 83.669608 83.680864 83.669608 46.213531 0 83.652212-37.453007 83.652212-83.669608C595.001389 572.995189 557.561685 535.527856 511.348154 535.527856L511.348154 535.527856zM479.966423 122.423237l67.978231 0 0 172.563194-67.978231 0L479.966423 122.423237 479.966423 122.423237zM66.861804 338.635557l47.245024-48.822962 104.465237 107.943454-47.246047 48.820915L66.861804 338.635557 66.861804 338.635557zM66.861804 338.635557" p-id="5548" fill="#bbc4da"></path></svg>