<svg t="1545458041287" class="icon" viewBox="0 0 1024 1024" version="1.1" xmlns="http://www.w3.org/2000/svg" p-id="7640" height="28" width="28"><path d="M512 892.9c-51.4 0-101.3-10.1-148.3-30-45.4-19.2-86.1-46.7-121.1-81.7s-62.5-75.7-81.7-121.1c-19.9-47-30-96.9-30-148.3 0-99.3 38-193.3 107-264.7 68.8-71.2 161.1-112.4 259.9-116 11-0.4 21.7 4.5 28.5 13.1 6.8 8.6 9.2 20.1 6.3 30.8l-90.9 332.8h47.7c14.4 0 27.8 6.5 36.7 17.8 8.9 11.3 12.1 25.8 8.7 39.8l-9.8 40.8 70.7-117.4h-34.3c-16.8 0-32-8.7-40.4-23.3-8.4-14.5-8.5-31.9-0.2-46.5l127.9-226c4.8-8.5 12.6-14.6 22.1-17.2 9.4-2.6 19.3-1.4 27.8 3.4 120 68 194.5 195.5 194.5 332.7 0 51.4-10.1 101.3-30 148.3-19.2 45.4-46.7 86.1-81.6 121.1-35 35-75.7 62.5-121.1 81.6-47.1 19.9-97 30-148.4 30z m-33.2-710.4c-77.9 7.7-150 42.6-204.9 99.4-59.9 62-92.9 143.7-92.9 230 0 88.3 34.5 171.4 97 234 62.6 62.6 145.7 97 234 97 88.4 0 171.5-34.4 234-97 62.5-62.5 96.9-145.6 96.9-234 0-114.8-60-221.8-157.6-282.4L567.1 438.9h34.5c16.8 0 32.4 9.1 40.7 23.7s8 32.7-0.6 47.1l-152.9 254c-6.7 11.2-20.4 15.7-32.5 10.8-12.1-5-18.6-17.8-15.6-30.5l44.7-186.1h-47.9c-14.7 0-28.2-6.7-37.1-18.4-8.9-11.7-11.8-26.5-7.9-40.7l86.3-316.3z" p-id="7641" fill="#bbc4da"></path></svg>