<svg t="1545458308332" class="icon" viewBox="0 0 1024 1024" version="1.1" xmlns="http://www.w3.org/2000/svg" p-id="11674" height="28" width="28"><path d="M515.396 99c229.198 0 415 185.802 415 415 0 104.959-39.436 208.142-120.273 292.344L516.856 504.778 515.396 99z" fill="#bbc4da" p-id="11675"></path><path d="M515.396 159c47.951 0 94.436 9.378 138.164 27.873 42.266 17.877 80.237 43.482 112.859 76.104s58.227 70.593 76.104 112.859c18.495 43.728 27.873 90.212 27.873 138.164s-9.378 94.436-27.873 138.164c-17.877 42.266-43.482 80.237-76.104 112.859s-70.593 58.227-112.859 76.104C609.832 859.622 563.347 869 515.396 869s-94.436-9.378-138.164-27.873c-42.266-17.877-80.237-43.482-112.859-76.104s-58.227-70.593-76.104-112.859c-18.495-43.728-27.873-90.213-27.873-138.164s9.378-94.436 27.873-138.164c17.877-42.266 43.482-80.237 76.104-112.859s70.593-58.227 112.859-76.104C420.96 168.378 467.445 159 515.396 159m0-60c-229.198 0-415 185.802-415 415s185.802 415 415 415 415-185.802 415-415-185.802-415-415-415z" fill="#bbc4da" p-id="11676"></path><path d="M515.396 204.133c-15.217 0-27.667 12.45-27.667 27.667v277.589c0 15.217 12.45 27.667 27.667 27.667s27.667-12.45 27.667-27.667V231.8c0-15.217-12.45-27.667-27.667-27.667z" fill="#bbc4da" p-id="11677"></path><path d="M515.669 482.413c-7.092 0-14.183 2.69-19.563 8.07-10.76 10.76-10.76 28.367 0 39.126l141.398 141.398c5.38 5.38 12.471 8.07 19.563 8.07 7.092 0 14.183-2.69 19.563-8.07 10.76-10.76 10.76-28.367 0-39.126L535.233 490.483c-5.38-5.38-12.472-8.07-19.564-8.07z" fill="#bbc4da" p-id="11678"></path></svg>