<svg t="1544663532732" class="icon" viewBox="0 0 1024 1024" version="1.1" xmlns="http://www.w3.org/2000/svg" p-id="2003" height="28" width="28"><path d="M522.24 775.68c-12.8 0-23.04-10.24-23.04-23.04V494.08c0-12.8 10.24-23.04 23.04-23.04s23.04 10.24 23.04 23.04v258.56c0 12.8-10.24 23.04-23.04 23.04zM524.8 427.52c-15.36 0-25.6-10.24-25.6-23.04s10.24-23.04 23.04-23.04h2.56c12.8 0 23.04 10.24 23.04 23.04s-10.24 23.04-23.04 23.04z" fill="#bbc4da" p-id="2004"></path><path d="M524.8 855.04c-184.32 0-335.36-151.04-335.36-335.36s151.04-332.8 335.36-332.8 335.36 151.04 335.36 335.36-151.04 332.8-335.36 332.8z m0-624.64C363.52 230.4 235.52 360.96 235.52 519.68s130.56 289.28 289.28 289.28c158.72 0 289.28-130.56 289.28-289.28S683.52 230.4 524.8 230.4z" fill="#bbc4da" p-id="2005"></path></svg>