<svg t="1545458180871" class="icon" viewBox="0 0 1024 1024" version="1.1" xmlns="http://www.w3.org/2000/svg" p-id="9108" height="28" width="28"><path d="M512.25071 61.222363c60.866253 0 119.884414 11.909238 175.416172 35.397185 53.662177 22.696931 101.867062 55.20123 143.275147 96.609315 41.408085 41.408085 73.912383 89.611947 96.609315 143.275147 23.487947 55.531757 35.397185 114.549919 35.397185 175.416172s-11.909238 119.884414-35.397185 175.416172c-22.696931 53.662177-55.20123 101.867062-96.609315 143.275147-41.408085 41.408085-89.611947 73.91136-143.275147 96.609315C632.135124 950.70774 573.116963 962.616978 512.25071 962.616978c-60.866253 0-119.884414-11.909238-175.416172-35.397185-53.6632-22.697955-101.867062-55.20123-143.275147-96.609315-41.408085-41.408085-73.91136-89.61297-96.609315-143.275147-23.487947-55.531757-35.397185-114.549919-35.397185-175.416172s11.909238-119.884414 35.397185-175.416172c22.697955-53.662177 55.20123-101.867062 96.609315-143.275147 41.408085-41.408085 89.61297-73.912383 143.275147-96.609315C392.366296 73.131601 451.384457 61.222363 512.25071 61.222363M512.25071 10.057053c-277.17067 0-501.862105 224.691435-501.862105 501.862105S235.08004 1013.782288 512.25071 1013.782288s501.862105-224.691435 501.862105-501.862105S789.42138 10.057053 512.25071 10.057053L512.25071 10.057053z" p-id="9109" fill="#bbc4da"></path><path d="M516.190439 918.148184 434.260451 584.028477 100.140745 502.098489 775.370363 242.919589Z" p-id="9110" fill="#bbc4da"></path></svg>