<svg t="1548567597421" class="icon" viewBox="0 0 1024 1024" version="1.1" xmlns="http://www.w3.org/2000/svg" p-id="2593" height="28" width="28"><path d="M914.672 378.672c-24-240-261.328-317.328-261.328-317.328C544 26.672 440 48 440 48 186.672 80 122.672 362.672 122.672 362.672 88 546.672 221.328 704 221.328 704 256 736 512 984 512 984h32c0-13.328 253.328-261.328 253.328-261.328 165.344-154.672 117.344-344 117.344-344zM522.912 722.432c-160.464 0-290.544-130.08-290.544-290.544 0-160.464 130.08-290.544 290.544-290.544 160.464 0 290.544 130.08 290.544 290.544 0 160.448-130.08 290.544-290.544 290.544z" p-id="2594" fill="#bbc4da"></path><path d="M472 250.672v208s13.328 34.672 40 34.672h144s73.328-36 0-73.328l-97.328-1.328s-22.672 13.328-22.672-24l1.328-144c0-0.016-30.656-45.36-65.328-0.016z" p-id="2595" fill="#bbc4da"></path></svg>