<svg t="1545457687993" class="icon" viewBox="0 0 1024 1024" version="1.1" xmlns="http://www.w3.org/2000/svg" p-id="4486" height="28" width="28"><path d="M846.164064 70.335788h-60.163121V28.171563c0-11.715809-9.483983-21.191606-21.177279-21.191605-11.695343 0-21.177279 9.475796-21.17728 21.191605v42.164225h-58.782683V28.171563c0-11.715809-9.468633-21.191606-21.17728-21.191605-11.69432 0-21.176256 9.475796-21.176256 21.191605v42.164225h-58.755054V28.171563c0-11.715809-9.497286-21.191606-21.191606-21.191605-11.695343 0-21.163976 9.475796-21.163977 21.191605v42.164225h-58.789847V28.171563c0-11.715809-9.468633-21.191606-21.177279-21.191605-11.67283 0-21.170116 9.475796-21.170116 21.191605v42.164225h-58.762218V28.171563c0-11.715809-9.489099-21.191606-21.177279-21.191605-11.702506 0-21.183419 9.475796-21.18342 21.191605v42.164225h-58.762217V28.171563c0-11.715809-9.497286-21.191606-21.17728-21.191605-11.715809 0-21.177279 9.475796-21.177279 21.191605v42.164225h-60.184611c-35.091146 0-63.546165 28.455019-63.546164 63.531838v819.634904c0 35.083983 28.455019 63.517512 63.546164 63.517512h668.328129c35.098309 0 63.546165-28.433529 63.546165-63.517512V133.867626c-0.002047-35.07682-28.449902-63.531838-63.548212-63.531838zM177.835936 953.50253V289.611448h454.809577c11.695343 0 21.177279-9.48296 21.17728-21.177279 0-11.701483-9.48296-21.177279-21.17728-21.17728H177.835936V133.867626h60.18461v43.770812c0 11.69432 9.46147 21.177279 21.177279 21.177279 11.679994 0 21.177279-9.48296 21.17728-21.177279v-43.770812h58.762218v43.770812c0 11.69432 9.481936 21.177279 21.183419 21.177279 11.68818 0 21.177279-9.48296 21.177279-21.177279v-43.770812h58.762218v43.770812c0 11.69432 9.496263 21.177279 21.170116 21.177279 11.708646 0 21.177279-9.48296 21.17728-21.177279v-43.770812h58.789847v43.770812c0 11.69432 9.468633 21.177279 21.163976 21.177279 11.69432 0 21.191606-9.48296 21.191606-21.177279v-43.770812h58.755054v43.770812c0 11.69432 9.48296 21.177279 21.176257 21.177279 11.708646 0 21.177279-9.48296 21.177279-21.177279v-43.770812h58.782684v43.770812c0 11.69432 9.48296 21.177279 21.177279 21.177279s21.177279-9.48296 21.17728-21.177279v-43.770812h60.163121v113.389263h-94.951369c-11.681017 0-21.177279 9.475796-21.17728 21.17728 0 11.69432 9.496263 21.177279 21.17728 21.177279h94.951369v663.890059H177.835936z" p-id="4487" fill="#bbc4da"></path><path d="M740.940768 429.622992H483.136683c-11.702506 0-21.176256 9.496263-21.176256 21.17728 0 11.715809 9.474773 21.177279 21.176256 21.177279h257.804085c11.708646 0 21.191606-9.46147 21.191606-21.177279 0-11.679994-9.48296-21.177279-21.191606-21.17728zM364.090594 429.622992h-81.031362c-11.702506 0-21.177279 9.496263-21.17728 21.17728 0 11.715809 9.475796 21.177279 21.17728 21.177279h81.031362c11.695343 0 21.176256-9.46147 21.176257-21.177279 0.001023-11.679994-9.480913-21.177279-21.176257-21.17728zM740.940768 540.863317H483.136683c-11.702506 0-21.176256 9.468633-21.176256 21.162953 0 11.695343 9.474773 21.191606 21.176256 21.191606h257.804085c11.708646 0 21.191606-9.496263 21.191606-21.191606 0-11.69432-9.48296-21.162953-21.191606-21.162953zM364.090594 540.863317h-81.031362c-11.702506 0-21.177279 9.468633-21.17728 21.162953 0 11.695343 9.475796 21.191606 21.17728 21.191606h81.031362c11.695343 0 21.176256-9.496263 21.176257-21.191606 0.001023-11.69432-9.480913-21.162953-21.176257-21.162953zM740.940768 657.232442H483.136683c-11.702506 0-21.176256 9.48296-21.176256 21.176256 0 11.695343 9.474773 21.177279 21.176256 21.17728h257.804085c11.708646 0 21.191606-9.48296 21.191606-21.17728 0-11.693297-9.48296-21.176256-21.191606-21.176256zM364.090594 657.232442h-81.031362c-11.702506 0-21.177279 9.48296-21.17728 21.176256 0 11.695343 9.475796 21.177279 21.17728 21.17728h81.031362c11.695343 0 21.176256-9.48296 21.176257-21.17728 0.001023-11.693297-9.480913-21.176256-21.176257-21.176256zM740.940768 780.420866H483.136683c-11.702506 0-21.176256 9.483983-21.176256 21.177279 0 11.695343 9.474773 21.177279 21.176256 21.17728h257.804085c11.708646 0 21.191606-9.48296 21.191606-21.17728 0-11.693297-9.48296-21.177279-21.191606-21.177279zM364.090594 780.420866h-81.031362c-11.702506 0-21.177279 9.483983-21.17728 21.177279 0 11.695343 9.475796 21.177279 21.17728 21.17728h81.031362c11.695343 0 21.176256-9.48296 21.176257-21.17728 0.001023-11.693297-9.480913-21.177279-21.176257-21.177279z" p-id="4488" fill="#bbc4da"></path></svg>