<svg t="1545458132622" class="icon" viewBox="0 0 1024 1024" version="1.1" xmlns="http://www.w3.org/2000/svg" p-id="8822" height="28" width="28"><path d="M710.4 531.2C576 531.2 467.2 640 467.2 768s108.8 243.2 243.2 243.2 243.2-108.8 243.2-243.2c-12.8-128-115.2-236.8-243.2-236.8z m89.6 275.2h-121.6c-12.8 0-19.2-12.8-19.2-19.2v-121.6c0-12.8 12.8-19.2 19.2-19.2 12.8 0 19.2 12.8 19.2 19.2v108.8h108.8c12.8 0 19.2 0 19.2 19.2 6.4 19.2-19.2 12.8-25.6 12.8z" p-id="8823" fill="#bbc4da"></path><path d="M467.2 768c0-128 108.8-243.2 243.2-243.2 38.4 0 70.4 12.8 102.4 19.2V89.6c0-32-32-57.6-57.6-57.6H147.2c-32 0-57.6 32-57.6 57.6v729.6c0 32 32 57.6 57.6 57.6h352c-19.2-38.4-32-70.4-32-108.8zM217.6 198.4h390.4c19.2 0 32 12.8 32 32s-12.8 25.6-32 25.6H217.6c-19.2 0-32-6.4-32-25.6s12.8-32 32-32z m83.2 467.2H217.6c-19.2 0-32-12.8-32-32s12.8-32 32-32h83.2c19.2 6.4 25.6 19.2 25.6 38.4s-6.4 25.6-25.6 25.6z m89.6-198.4H217.6c-19.2 0-32-12.8-32-32s12.8-32 32-32h172.8c19.2 0 32 12.8 32 32-6.4 25.6-12.8 32-32 32z" p-id="8824" fill="#bbc4da"></path></svg>